<?xml version="1.0" encoding="utf-8"?>
<!-- Uploaded to: SVG Repo, www.svgrepo.com, Generator: SVG Repo Mixer Tools -->
<svg width="800px" height="800px" viewBox="0 0 1024 1024" class="icon"  version="1.1" xmlns="http://www.w3.org/2000/svg"><path d="M786.176 21.333333H256a21.333333 21.333333 0 0 0-21.333333 21.333334v469.333333a21.333333 21.333333 0 0 0 0.746666 5.610667l128 469.333333A21.333333 21.333333 0 0 0 384 1002.666667c82.346667 0 149.333333-66.986667 149.333333-149.333334V618.666667h298.816c43.605333 0 84.928-18.986667 113.344-52.096a149.162667 149.162667 0 0 0 34.24-119.936l-45.952-298.666667A148.544 148.544 0 0 0 786.176 21.333333z" fill="#EAD8C5" /><path d="M234.666667 533.333333H42.666667a21.333333 21.333333 0 0 1-21.333334-21.333333V42.666667a21.333333 21.333333 0 0 1 21.333334-21.333334h192v512z" fill="#444444" /></svg>