<?xml version="1.0" encoding="iso-8859-1"?>
<!-- Uploaded to: SVG Repo, www.svgrepo.com, Generator: SVG Repo Mixer Tools -->
<svg height="800px" width="800px" version="1.1" id="Layer_1" xmlns="http://www.w3.org/2000/svg" xmlns:xlink="http://www.w3.org/1999/xlink" 
	 viewBox="0 0 512 512" xml:space="preserve">
<path style="fill:#FFDA79;" d="M403.718,512H38.342c-11.548,0-20.91-9.362-20.91-20.91V20.91C17.432,9.362,26.794,0,38.342,0
	h365.376c11.548,0,20.91,9.362,20.91,20.91v182.13c0,5.545-2.203,10.865-6.124,14.786l-156.36,156.359l19.875,19.875
	l106.912-106.912c13.121-13.121,35.696-3.832,35.696,14.786v189.156C424.628,502.638,415.266,512,403.718,512z"/>
<path style="fill:#FFD155;" d="M424.628,203.041V20.91c0-11.548-9.362-20.91-20.91-20.91H221.03v512h182.688
	c11.548,0,20.91-9.362,20.91-20.91V301.933c0-18.555-22.532-27.95-35.696-14.786L282.02,394.059l-19.875-19.875l156.359-156.359
	C422.426,213.906,424.628,208.586,424.628,203.041z"/>
<g>
	<path style="fill:#FFC72D;" d="M339.591,120.188H102.47c-11.548,0-20.91-9.362-20.91-20.91s9.362-20.91,20.91-20.91h237.121
		c11.548,0,20.91,9.362,20.91,20.91C360.501,110.826,351.139,120.188,339.591,120.188z"/>
	<path style="fill:#FFC72D;" d="M283.873,191.875H102.47c-11.548,0-20.91-9.362-20.91-20.91s9.362-20.91,20.91-20.91h181.403
		c11.548,0,20.91,9.362,20.91,20.91S295.421,191.875,283.873,191.875z"/>
	<path style="fill:#FFC72D;" d="M283.873,263.561H102.47c-11.548,0-20.91-9.362-20.91-20.91s9.362-20.91,20.91-20.91h181.403
		c11.548,0,20.91,9.362,20.91,20.91C304.783,254.199,295.421,263.561,283.873,263.561z"/>
	<path style="fill:#FFC72D;" d="M190.473,335.248H102.47c-11.548,0-20.91-9.362-20.91-20.91s9.362-20.91,20.91-20.91h88.002
		c11.548,0,20.91,9.362,20.91,20.91C211.383,325.886,202.021,335.248,190.473,335.248z"/>
</g>
<path style="fill:#6A82A1;" d="M220.578,456.54c-13.151,0-23.043-12.017-20.523-24.917l11.996-61.438
	c3.202-16.399,23.478-22.608,35.308-10.779l49.444,49.443c11.816,11.814,5.64,32.103-10.779,35.309l-61.438,11.994
	C223.252,456.413,221.91,456.54,220.578,456.54z"/>
<path style="fill:#36495E;" d="M296.803,408.85l-49.444-49.443c-6.945-6.944-17.926-8.207-26.329-2.64v99.753
	c1.184-0.025,2.373-0.135,3.555-0.365l61.438-11.994C302.422,440.957,308.632,420.68,296.803,408.85z"/>
<path style="fill:#2C3E50;" d="M282.019,444.543c-5.547,0-10.865-2.203-14.785-6.124l-49.446-49.446
	c-3.923-3.921-6.125-9.24-6.125-14.786c0-5.547,2.203-10.864,6.125-14.786l59.271-59.27
	c51.688-51.688,118.727-118.728,122.109-122.107c21.797-21.776,57.24-21.773,79.017,0.001c21.8,21.758,21.89,57.126,0.001,79.018
	l-0.001,0.001L296.807,438.42C292.884,442.34,287.566,444.543,282.019,444.543z"/>
<path style="fill:#22313F;" d="M478.183,178.022c-21.775-21.775-57.219-21.776-79.017-0.001
	c-3.382,3.381-70.421,70.42-122.109,122.107l-56.028,56.028v36.057l46.204,46.204c3.921,3.921,9.24,6.124,14.785,6.124
	c5.545,0,10.865-2.203,14.786-6.124l181.377-181.377l0.001-0.001C500.05,235.173,500.005,199.802,478.183,178.022z"/>
<g>
	<path style="fill:#FFBE00;" d="M339.591,78.367H221.03v41.821h118.561c11.548,0,20.91-9.362,20.91-20.91
		C360.501,87.729,351.139,78.367,339.591,78.367z"/>
	<path style="fill:#FFBE00;" d="M283.873,150.054H221.03v41.821h62.843c11.548,0,20.91-9.362,20.91-20.91
		S295.421,150.054,283.873,150.054z"/>
	<path style="fill:#FFBE00;" d="M283.873,221.74H221.03v41.821h62.843c11.548,0,20.91-9.362,20.91-20.91
		S295.421,221.74,283.873,221.74z"/>
</g>
</svg>